<?xml version="1.0" encoding="utf-8"?>
<!-- Generator: Adobe Illustrator 17.0.0, SVG Export Plug-In . SVG Version: 6.00 Build 0)  -->
<!DOCTYPE svg PUBLIC "-//W3C//DTD SVG 1.1//EN" "http://www.w3.org/Graphics/SVG/1.1/DTD/svg11.dtd">
<svg version="1.1" id="Layer_1" xmlns="http://www.w3.org/2000/svg" xmlns:xlink="http://www.w3.org/1999/xlink" x="0px" y="0px"
	 width="219.689px" height="68px" viewBox="0 0 219.689 68" enable-background="new 0 0 219.689 68" xml:space="preserve">
<g>
	<linearGradient id="SVGID_1_" gradientUnits="userSpaceOnUse" x1="34.0069" y1="0" x2="34.0069" y2="68.0001">
		<stop  offset="0" style="stop-color:#E74025"/>
		<stop  offset="1" style="stop-color:#C42026"/>
	</linearGradient>
	<path fill-rule="evenodd" clip-rule="evenodd" fill="url(#SVGID_1_)" d="M34.007,0c18.781,0,34.007,15.222,34.007,34
		S52.788,68,34.007,68C15.225,68,0,52.778,0,34S15.225,0,34.007,0z"/>
	<g>
		<path fill="#666766" d="M79.327,57.855c0,0.695-0.08,1.153-0.239,1.374c-0.16,0.221-0.432,0.331-0.817,0.331
			c-0.381,0-0.665-0.154-0.852-0.463c-0.125-0.203-0.197-0.551-0.216-1.043l-1.628,0.188c0.004,0.918,0.233,1.614,0.689,2.089
			c0.455,0.475,1.105,0.712,1.949,0.712c0.72,0,1.299-0.151,1.739-0.454c0.44-0.303,0.743-0.704,0.91-1.204
			c0.125-0.383,0.187-0.93,0.187-1.641v-5.438h-1.722V57.855z"/>
		<path fill="#666766" d="M82.875,56.888c0,0.961,0.056,1.688,0.169,2.18c0.078,0.332,0.239,0.649,0.484,0.952
			c0.245,0.303,0.579,0.549,1.001,0.738c0.422,0.189,1.042,0.284,1.859,0.284c0.677,0,1.225-0.087,1.646-0.261
			c0.42-0.174,0.756-0.407,1.007-0.7c0.251-0.293,0.423-0.652,0.517-1.078s0.14-1.154,0.14-2.186v-4.512H87.97v4.752
			c0,0.68-0.025,1.166-0.076,1.459c-0.051,0.293-0.2,0.54-0.449,0.741c-0.249,0.201-0.619,0.302-1.109,0.302
			c-0.482,0-0.863-0.106-1.141-0.319c-0.278-0.213-0.454-0.495-0.528-0.847c-0.043-0.219-0.064-0.697-0.064-1.436v-4.652h-1.728
			V56.888z"/>
		<path fill="#666766" d="M94.541,58.605v-1.646H91.32v1.646H94.541z"/>
		<path fill="#666766" d="M97.08,60.896v-6.762l1.692,6.762h1.663l1.698-6.762v6.762h1.605v-8.59h-2.591l-1.535,5.859l-1.552-5.859
			h-2.585v8.59H97.08z"/>
		<path fill="#666766" d="M105.466,59.516c0.268,0.498,0.66,0.876,1.176,1.134c0.515,0.258,1.057,0.387,1.625,0.387
			c0.918,0,1.68-0.31,2.285-0.929c0.605-0.619,0.908-1.399,0.908-2.341c0-0.934-0.3-1.706-0.899-2.317
			c-0.599-0.611-1.368-0.917-2.305-0.917c-0.607,0-1.157,0.135-1.649,0.404c-0.492,0.27-0.872,0.66-1.141,1.172
			c-0.268,0.512-0.403,1.041-0.403,1.588C105.064,58.411,105.198,59.018,105.466,59.516z M107.182,56.366
			c0.292-0.328,0.652-0.492,1.08-0.492s0.787,0.164,1.077,0.492c0.29,0.328,0.435,0.797,0.435,1.406c0,0.625-0.145,1.102-0.435,1.43
			c-0.29,0.328-0.649,0.492-1.077,0.492s-0.788-0.164-1.08-0.492c-0.292-0.328-0.438-0.801-0.438-1.418
			C106.744,57.167,106.89,56.694,107.182,56.366z"/>
		<path fill="#666766" d="M114.465,54.673v-2.197l-1.646,0.961v1.236h-0.753v1.312h0.753v2.713c0,0.582,0.018,0.969,0.053,1.16
			c0.043,0.27,0.12,0.483,0.231,0.642c0.111,0.158,0.285,0.287,0.522,0.387c0.237,0.1,0.504,0.15,0.799,0.15
			c0.482,0,0.914-0.082,1.296-0.246l-0.14-1.277c-0.288,0.106-0.508,0.158-0.659,0.158c-0.109,0-0.201-0.027-0.277-0.082
			c-0.076-0.055-0.124-0.124-0.146-0.208s-0.032-0.38-0.032-0.888v-2.508h1.121v-1.312H114.465z"/>
		<path fill="#666766" d="M116.747,59.516c0.269,0.498,0.66,0.876,1.176,1.134c0.515,0.258,1.057,0.387,1.625,0.387
			c0.918,0,1.68-0.31,2.285-0.929c0.605-0.619,0.908-1.399,0.908-2.341c0-0.934-0.3-1.706-0.899-2.317
			c-0.599-0.611-1.368-0.917-2.305-0.917c-0.607,0-1.157,0.135-1.649,0.404c-0.492,0.27-0.872,0.66-1.141,1.172
			c-0.268,0.512-0.403,1.041-0.403,1.588C116.345,58.411,116.479,59.018,116.747,59.516z M118.463,56.366
			c0.292-0.328,0.652-0.492,1.08-0.492c0.428,0,0.787,0.164,1.077,0.492c0.29,0.328,0.435,0.797,0.435,1.406
			c0,0.625-0.145,1.102-0.435,1.43c-0.29,0.328-0.649,0.492-1.077,0.492c-0.428,0-0.788-0.164-1.08-0.492
			c-0.292-0.328-0.438-0.801-0.438-1.418C118.025,57.167,118.171,56.694,118.463,56.366z"/>
		<path fill="#666766" d="M125.595,58.974c0-1.059,0.046-1.754,0.137-2.086c0.091-0.332,0.217-0.561,0.376-0.688
			c0.16-0.127,0.354-0.19,0.584-0.19c0.237,0,0.494,0.09,0.77,0.27l0.508-1.436c-0.346-0.207-0.706-0.311-1.08-0.311
			c-0.265,0-0.501,0.066-0.709,0.199c-0.208,0.133-0.443,0.408-0.703,0.826v-0.885h-1.523v6.223h1.64V58.974z"/>
		<path fill="#666766" d="M129.064,60.521c0.492,0.344,1.16,0.516,2.005,0.516c0.93,0,1.632-0.205,2.107-0.615
			c0.475-0.41,0.712-0.9,0.712-1.471c0-0.523-0.171-0.932-0.514-1.225c-0.346-0.289-0.956-0.533-1.829-0.732
			c-0.874-0.199-1.384-0.354-1.532-0.463c-0.109-0.082-0.163-0.182-0.163-0.299c0-0.137,0.062-0.248,0.187-0.334
			c0.187-0.121,0.496-0.182,0.928-0.182c0.342,0,0.606,0.064,0.791,0.193c0.185,0.129,0.31,0.314,0.376,0.557l1.547-0.287
			c-0.156-0.543-0.44-0.953-0.852-1.23c-0.412-0.277-1.043-0.416-1.891-0.416c-0.891,0-1.548,0.184-1.973,0.551
			c-0.424,0.367-0.636,0.82-0.636,1.359c0,0.598,0.245,1.064,0.735,1.4c0.354,0.242,1.192,0.51,2.515,0.803
			c0.284,0.067,0.467,0.139,0.549,0.217c0.078,0.082,0.117,0.186,0.117,0.311c0,0.184-0.072,0.33-0.216,0.439
			c-0.214,0.156-0.533,0.234-0.957,0.234c-0.385,0-0.685-0.083-0.899-0.249c-0.214-0.166-0.356-0.409-0.426-0.729l-1.646,0.252
			C128.25,59.71,128.572,60.177,129.064,60.521z"/>
		<path fill="#666766" d="M143.418,59.12c-0.331,0.293-0.726,0.439-1.185,0.439c-0.622,0-1.128-0.23-1.517-0.691
			c-0.389-0.461-0.584-1.234-0.584-2.32c0-1.023,0.197-1.764,0.592-2.221c0.395-0.457,0.909-0.686,1.544-0.686
			c0.459,0,0.849,0.129,1.17,0.387c0.321,0.258,0.532,0.609,0.633,1.055l1.71-0.41c-0.195-0.688-0.486-1.215-0.875-1.582
			c-0.654-0.621-1.504-0.932-2.55-0.932c-1.198,0-2.165,0.395-2.9,1.186c-0.735,0.791-1.103,1.901-1.103,3.331
			c0,1.352,0.366,2.417,1.097,3.196c0.731,0.779,1.665,1.169,2.801,1.169c0.918,0,1.676-0.227,2.273-0.683
			c0.597-0.455,1.024-1.151,1.281-2.089l-1.675-0.533C143.986,58.366,143.748,58.827,143.418,59.12z"/>
		<path fill="#666766" d="M147.298,59.516c0.269,0.498,0.66,0.876,1.176,1.134c0.515,0.258,1.057,0.387,1.625,0.387
			c0.918,0,1.68-0.31,2.285-0.929c0.605-0.619,0.907-1.399,0.907-2.341c0-0.934-0.3-1.706-0.899-2.317
			c-0.599-0.611-1.368-0.917-2.305-0.917c-0.607,0-1.156,0.135-1.649,0.404c-0.492,0.27-0.872,0.66-1.141,1.172
			c-0.268,0.512-0.403,1.041-0.403,1.588C146.896,58.411,147.03,59.018,147.298,59.516z M149.014,56.366
			c0.292-0.328,0.652-0.492,1.08-0.492c0.428,0,0.787,0.164,1.077,0.492c0.29,0.328,0.435,0.797,0.435,1.406
			c0,0.625-0.145,1.102-0.435,1.43c-0.29,0.328-0.649,0.492-1.077,0.492c-0.428,0-0.788-0.164-1.08-0.492
			c-0.292-0.328-0.438-0.801-0.438-1.418C148.577,57.167,148.723,56.694,149.014,56.366z"/>
		<path fill="#666766" d="M154.535,60.896h0.794c-0.008,0.332-0.082,0.594-0.222,0.785c-0.14,0.191-0.376,0.342-0.706,0.451
			l0.321,0.68c0.35-0.125,0.639-0.297,0.867-0.516c0.228-0.219,0.382-0.466,0.464-0.741c0.082-0.275,0.123-0.651,0.123-1.128v-1.178
			h-1.64V60.896z"/>
		<path fill="#666766" d="M167.298,60.896v-1.447h-4.295v-7.072h-1.728v8.52H167.298z"/>
		<path fill="#666766" d="M170.24,54.673v-2.197l-1.646,0.961v1.236h-0.753v1.312h0.753v2.713c0,0.582,0.017,0.969,0.052,1.16
			c0.043,0.27,0.12,0.483,0.231,0.642c0.111,0.158,0.285,0.287,0.522,0.387c0.237,0.1,0.504,0.15,0.799,0.15
			c0.482,0,0.914-0.082,1.296-0.246l-0.14-1.277c-0.288,0.106-0.508,0.158-0.659,0.158c-0.109,0-0.201-0.027-0.277-0.082
			c-0.076-0.055-0.125-0.124-0.146-0.208c-0.021-0.084-0.032-0.38-0.032-0.888v-2.508h1.121v-1.312H170.24z"/>
		<path fill="#666766" d="M178.182,52.306h-1.64V55.4c-0.506-0.578-1.105-0.867-1.798-0.867c-0.755,0-1.379,0.274-1.873,0.823
			c-0.494,0.549-0.741,1.351-0.741,2.405c0,1.031,0.254,1.835,0.762,2.411c0.508,0.576,1.118,0.864,1.83,0.864
			c0.35,0,0.697-0.087,1.042-0.261c0.344-0.174,0.643-0.438,0.896-0.794v0.914h1.523V52.306z M174.199,56.258
			c0.263-0.311,0.589-0.466,0.978-0.466c0.401,0,0.73,0.157,0.986,0.472c0.257,0.314,0.385,0.829,0.385,1.544
			c0,0.641-0.132,1.122-0.397,1.444c-0.265,0.322-0.586,0.483-0.963,0.483c-0.475,0-0.844-0.215-1.109-0.645
			c-0.183-0.297-0.274-0.777-0.274-1.441C173.805,57.032,173.937,56.569,174.199,56.258z"/>
	</g>
	<g>
		<path d="M84.916,19.434h-8.252l-1.695,6.05h2.839l-2.226,1.333l0.02,20.692l6.577-0.841v-21.02h2.696l-0.021,21.841l6.577-1.169
			V25.648h3.472v7.895c0.177,5.387-0.293,8.032-1.409,7.937v6.214c1.838,0,3.384-0.4,4.637-1.2c1.253-0.8,2.226-2.676,2.921-5.629
			l0.041-18.601c-0.177-1.627-1.11-2.57-2.798-2.83H91.37v-2.01l-6.455-0.061V19.434z"/>
		<path d="M103.646,20.521v23.604c0.368,2.119,1.709,3.131,4.024,3.035h15.585c2.219-0.068,3.493-0.854,3.82-2.358V26.325
			c0.095-4.238-0.688-6.59-2.349-7.055h-13.481l-1.593,2.686V19.27L103.646,20.521z M121.049,25.32v15.791h-11.398V25.32H121.049z"
			/>
		<path d="M128.954,25.422l8.313,0.021l-2.635,1.271v14.663c0.041,2.092,0.705,3.774,1.992,5.045
			c1.287,1.271,2.863,1.88,4.729,1.825l1.491-5.783c-1.621-0.383-2.315-1.606-2.083-3.671v-13.31h6.598l0.756-6.152h-18.547
			L128.954,25.422z"/>
		<path d="M149.85,20.521v23.604c0.368,2.119,1.709,3.131,4.024,3.035h15.585c2.219-0.068,3.493-0.854,3.82-2.358V26.325
			c0.095-4.238-0.688-6.59-2.349-7.055h-13.481l-1.593,2.686V19.27L149.85,20.521z M167.253,25.32v15.791h-11.398V25.32H167.253z"/>
		<path d="M175.28,25.443l4.412-0.021l-2.798,1.559l-0.041,8.634l-2.206,1.395l2.247,4.819v5.455l5.719-0.041l0.02-7.321
			l3.207-1.518l1.287,2.461c2.383,4.047,4.643,6.289,6.781,6.727l3.289,0.615l0.47-6.316c-2.193-0.287-3.888-1.374-5.086-3.261
			l-1.614-2.584c1.92-0.847,3.254-1.596,4.004-2.246c0.749-0.649,1.321-1.924,1.716-3.825l0.041-8.244
			c-0.463-1.449-1.314-2.249-2.553-2.4h-17.607L175.28,25.443z M190.967,25.443v2.83c0,1.217-0.742,2.099-2.226,2.646l-6.107,2.42
			v-7.896H190.967z"/>
		<path d="M198.974,25.238h3.758l-2.941,2.338l11.949,11.73c1.103,1.012,1.239,1.613,0.409,1.805l-5.454-0.021
			c-1.103,0.055-1.729-0.697-1.879-2.256l-5.597,1.907c0.381,1.668,0.919,3.066,1.614,4.194c0.695,1.128,1.641,1.89,2.839,2.287
			l10.315,0.021c2.791-0.246,4.541-1.299,5.249-3.158c0.708-2.912,0.585-4.983-0.368-6.214l-12.848-12.633h4.208
			c2.41-0.191,3.615,0.356,3.615,1.641l5.352-1.066c0-1.08-0.242-2.338-0.725-3.773c-0.483-1.436-1.549-2.358-3.197-2.769
			l-15.156,0.021L198.974,25.238z"/>
	</g>
	<g>
		<path fill="#8C181B" d="M16.136,26.873h7.721l-2.778,1.436c0.191,10.117-0.259,15.877-1.348,17.278
			c-1.09,1.402-2.587,2.184-4.494,2.348l0.49,6.152c3.023-0.315,5.467-1.186,7.333-2.615c1.865-1.429,2.992-2.823,3.38-4.184
			c0.388-1.36,0.616-2.97,0.684-4.83V21.028h-9.6L16.136,26.873z"/>
		<path fill="#8C181B" d="M29.678,21.726l-0.347,3.794c-0.232,6.631,0.286,11.703,1.552,15.217c1.266,3.514,2.876,5.845,4.831,6.993
			c1.954,1.149,4.844,1.688,8.671,1.62l1.287-0.287l1.062-3.712v3.384l5.924-0.595V21.274l-5.924-0.349l0.02,21
			c-4.371,0.738-7.176,0.397-8.415-1.025c-1.239-1.422-2.142-3.356-2.706-5.804c-0.565-2.447-0.46-7.267,0.317-14.458L29.678,21.726
			z"/>
	</g>
	<g>
		<path fill="#FFFFFF" d="M16.136,25.873h7.721l-2.778,1.436c0.191,10.117-0.259,15.877-1.348,17.278
			c-1.09,1.402-2.587,2.184-4.494,2.348l0.49,6.152c3.023-0.315,5.467-1.186,7.333-2.615c1.865-1.429,2.992-2.823,3.38-4.184
			c0.388-1.36,0.616-2.97,0.684-4.83V20.028h-9.6L16.136,25.873z"/>
		<path fill="#FFFFFF" d="M29.678,20.726l-0.347,3.794c-0.232,6.631,0.286,11.703,1.552,15.217c1.266,3.514,2.876,5.845,4.831,6.993
			c1.954,1.149,4.844,1.688,8.671,1.62l1.287-0.287l1.062-3.712v3.384l5.924-0.595V20.274l-5.924-0.349l0.02,21
			c-4.371,0.738-7.176,0.397-8.415-1.025c-1.239-1.422-2.142-3.356-2.706-5.804c-0.565-2.447-0.46-7.267,0.317-14.458L29.678,20.726
			z"/>
	</g>
</g>
</svg>
